<?xml version="1.0" standalone="no"?>
<svg xmlns="http://www.w3.org/2000/svg" width="24" height="24"><rect width="24" height="24" opacity="0"></rect><g><path d="M10.49 16.27Q10.85 16.27 11.21 16.13Q11.57 15.98 11.86 15.7L18.05 9.5Q18.26 9.29 18.26 8.98Q18.26 8.66 18.05 8.45Q17.83 8.23 17.52 8.23Q17.21 8.23 16.97 8.45L10.8 14.64Q10.66 14.76 10.48 14.76Q10.3 14.76 10.15 14.64L7.03 11.5Q6.82 11.28 6.5 11.28Q6.19 11.28 5.98 11.5Q5.76 11.71 5.76 12.02Q5.76 12.34 5.98 12.55L9.1 15.7Q9.38 15.98 9.73 16.13Q10.08 16.27 10.49 16.27Z" fill="rgba(255,255,255,1)"></path></g><g><path d="M19.01 3.5Q19.63 3.5 20.06 3.94Q20.5 4.37 20.5 4.99L20.5 19.01Q20.5 19.61 20.06 20.05Q19.63 20.5 19.01 20.5L4.99 20.5Q4.39 20.5 3.95 20.05Q3.5 19.61 3.5 19.01L3.5 4.99Q3.5 4.37 3.95 3.94Q4.39 3.5 4.99 3.5L19.01 3.5ZM4.99 1.99Q4.18 1.99 3.49 2.4Q2.81 2.81 2.4 3.49Q1.99 4.18 1.99 4.99L1.99 19.01Q1.99 19.82 2.4 20.51Q2.81 21.19 3.49 21.6Q4.18 22.01 4.99 22.01L19.01 22.01Q19.82 22.01 20.51 21.6Q21.19 21.19 21.6 20.51Q22.01 19.82 22.01 19.01L22.01 4.99Q22.01 4.18 21.6 3.49Q21.19 2.81 20.51 2.4Q19.82 1.99 19.01 1.99L4.99 1.99Z" fill="rgba(255,255,255,0.5)"></path></g></svg>