<?xml version="1.0" standalone="no"?>
<svg xmlns="http://www.w3.org/2000/svg" width="24" height="24"><rect width="24" height="24" opacity="0"></rect><g><path d="M18.46 12.77Q21.12 12.77 22.16 10.62Q23.21 8.47 22.15 6.34Q21.1 4.2 18.46 4.2L9.89 4.2Q9.58 3.26 8.78 2.68Q7.99 2.09 6.98 2.09Q6.17 2.09 5.46 2.5Q4.75 2.9 4.34 3.61Q3.94 4.32 3.94 5.14Q3.94 5.95 4.34 6.66Q4.75 7.37 5.46 7.78Q6.17 8.18 6.98 8.18Q8.09 8.18 8.93 7.48Q9.77 6.77 9.96 5.71L18.46 5.71Q20.18 5.71 20.88 7.1Q21.58 8.5 20.88 9.89Q20.18 11.28 18.46 11.28L5.47 11.28Q2.83 11.28 1.79 13.39Q0.74 15.5 1.79 17.6Q2.83 19.7 5.47 19.7L14.11 19.7Q14.38 20.66 15.18 21.29Q15.98 21.91 16.99 21.91Q17.81 21.91 18.49 21.5Q19.18 21.1 19.58 20.41Q19.99 19.73 19.99 18.91Q19.99 18.12 19.58 17.42Q19.18 16.73 18.49 16.32Q17.81 15.91 16.99 15.91Q15.96 15.91 15.16 16.56Q14.35 17.21 14.09 18.22L5.47 18.22Q3.77 18.22 3.1 16.85Q2.42 15.48 3.1 14.12Q3.77 12.77 5.47 12.77L18.46 12.77ZM6.98 6.65Q6.34 6.65 5.88 6.2Q5.42 5.76 5.42 5.11Q5.42 4.46 5.88 4.01Q6.34 3.55 6.98 3.55Q7.63 3.55 8.09 4.01Q8.54 4.46 8.54 5.11Q8.54 5.76 8.09 6.2Q7.63 6.65 6.98 6.65ZM16.99 17.42Q17.62 17.42 18.06 17.86Q18.5 18.29 18.5 18.91Q18.5 19.54 18.06 19.98Q17.62 20.42 16.99 20.42Q16.37 20.42 15.94 19.98Q15.5 19.54 15.5 18.91Q15.5 18.29 15.95 17.86Q16.39 17.42 16.99 17.42Z" fill="rgba(0,0,0,0.9019607843137255)"></path></g></svg>