<?xml version="1.0" standalone="no"?>
<svg xmlns="http://www.w3.org/2000/svg" width="24" height="24"><rect width="24" height="24" opacity="0"></rect><g><path d="M12.05 18.36Q13.39 18.36 14.42 18.18Q15.46 18 16.58 17.76L16.66 17.74Q16.8 17.71 16.92 17.6Q17.04 17.5 17.11 17.38Q17.35 16.87 17.76 16.2Q18.17 15.53 18.41 15.26Q19.39 14.06 19.91 12.62Q20.42 11.18 20.42 9.65Q20.42 7.3 19.3 5.3Q18.17 3.31 16.22 2.12Q14.28 0.94 12 0.94Q9.72 0.94 7.78 2.11Q5.83 3.29 4.69 5.28Q3.55 7.27 3.55 9.62Q3.55 11.16 4.07 12.6Q4.58 14.04 5.57 15.24Q5.64 15.34 5.71 15.43Q5.98 15.84 6.36 16.4Q6.74 16.97 6.89 17.23Q6.96 17.38 7.07 17.47Q7.18 17.57 7.32 17.62L7.37 17.64Q7.7 17.74 8.41 17.9Q9.12 18.07 10.08 18.22Q11.04 18.36 12.05 18.36ZM7.97 16.2Q7.63 15.6 7.31 15.1Q6.98 14.59 6.65 14.3Q5.86 13.32 5.42 12.11Q4.99 10.9 4.99 9.65Q4.99 7.68 5.94 6.01Q6.89 4.34 8.5 3.37Q10.1 2.4 12 2.4Q13.9 2.4 15.49 3.38Q17.09 4.37 18.04 6.02Q18.98 7.68 18.98 9.65Q18.98 10.92 18.55 12.13Q18.12 13.34 17.3 14.33Q16.85 14.83 15.98 16.42Q15.58 16.51 14.96 16.62Q14.35 16.73 13.58 16.81Q12.82 16.9 12.05 16.9Q10.58 16.9 8.28 16.39L8.04 16.32ZM16.34 18.89Q13.99 19.32 11.94 19.31Q9.89 19.3 7.66 18.89Q7.61 18.86 7.56 18.91Q7.51 18.96 7.51 19.03Q7.61 20.16 8.22 21.07Q8.83 21.98 9.83 22.51Q10.82 23.04 12.07 23.04Q13.18 23.04 14.16 22.51Q15.14 21.98 15.76 21.07Q16.37 20.16 16.46 19.03Q16.49 18.98 16.44 18.94Q16.39 18.89 16.34 18.89Z" fill="rgba(0,0,0,0.9019607843137255)"></path></g></svg>