<?xml version="1.0" standalone="no"?>
<svg xmlns="http://www.w3.org/2000/svg" width="24" height="24"><rect width="24" height="24" opacity="0"></rect><g><path d="M2.95 8.14Q2.78 7.99 2.56 8.02Q2.33 8.04 2.17 8.2Q2.02 8.35 2.02 8.59L2.02 15.41Q2.02 15.65 2.17 15.8Q2.33 15.96 2.56 15.98Q2.78 16.01 2.95 15.86L7.15 12.46L7.2 12.41Q7.39 12.24 7.37 11.98Q7.34 11.71 7.15 11.57L2.95 8.14Z" fill="rgba(0,0,0,0.9019607843137255)"></path><path d="M21.26 5.26Q21.58 5.26 21.8 5.03Q22.03 4.8 22.03 4.49Q22.03 4.18 21.8 3.96Q21.58 3.74 21.26 3.74L2.74 3.74Q2.42 3.74 2.21 3.96Q1.99 4.18 1.99 4.49Q1.99 4.82 2.21 5.04Q2.42 5.26 2.74 5.26L21.26 5.26ZM21.26 10.25Q21.58 10.25 21.8 10.03Q22.03 9.82 22.03 9.5Q22.03 9.19 21.82 8.98Q21.6 8.76 21.29 8.76L10.46 8.76Q10.15 8.76 9.94 8.98Q9.72 9.19 9.72 9.5Q9.72 9.82 9.94 10.03Q10.15 10.25 10.46 10.25L21.26 10.25ZM21.26 15.24Q21.58 15.24 21.8 15.02Q22.03 14.81 22.03 14.5Q22.03 14.18 21.82 13.97Q21.6 13.75 21.29 13.75L10.46 13.75Q10.15 13.75 9.94 13.97Q9.72 14.18 9.72 14.5Q9.72 14.81 9.94 15.02Q10.15 15.24 10.46 15.24L21.26 15.24ZM21.26 20.26Q21.58 20.26 21.8 20.03Q22.03 19.8 22.03 19.49Q22.03 19.18 21.8 18.96Q21.58 18.74 21.26 18.74L2.74 18.74Q2.42 18.74 2.21 18.96Q1.99 19.18 1.99 19.49Q1.99 19.82 2.21 20.04Q2.42 20.26 2.74 20.26L21.26 20.26Z" fill="rgba(0,0,0,0.9019607843137255)"></path></g></svg>