<?xml version="1.0" standalone="no"?>
<svg xmlns="http://www.w3.org/2000/svg" width="24" height="24"><rect width="24" height="24" opacity="0"></rect><g><path d="M4 3Q2.9 3 2.05 3.85Q1.2 4.7 1.2 5.8L1.2 18.2Q1.2 19.3 2.05 20.15Q2.9 21 4 21L20 21Q21.1 21 21.95 20.15Q22.8 19.3 22.8 18.2L22.8 5.8Q22.8 4.7 21.95 3.85Q21.1 3 20 3L4 3ZM4 5L20 5Q20.33 5 20.58 5.24Q20.83 5.49 20.83 5.82L20.83 7.67L3.17 7.67L3.17 5.82Q3.17 5.49 3.42 5.24Q3.67 5 4 5ZM3.17 9.67L20.83 9.67L20.83 18.2Q20.83 18.53 20.58 18.78Q20.33 19.03 20 19.03L4 19.03Q3.67 19.03 3.42 18.78Q3.17 18.53 3.17 18.2L3.17 9.67ZM6 14.5Q6 14.09 6.29 13.8Q6.59 13.5 7 13.5L10 13.5Q10.41 13.5 10.71 13.8Q11 14.09 11 14.5Q11 14.91 10.71 15.21Q10.41 15.5 10 15.5L7 15.5Q6.59 15.5 6.29 15.21Q6 14.91 6 14.5Z" fill="rgba(0,0,0,0.9)"></path></g></svg>
