<?xml version="1.0" standalone="no"?>
<svg xmlns="http://www.w3.org/2000/svg" width="24" height="24"><rect width="24" height="24" opacity="0"></rect><g><path d="M4.68 18.14Q5.09 18.14 5.74 17.92Q6.38 17.69 7.1 17.33Q7.58 17.09 8.04 16.87Q10.37 17.47 12.77 16.69Q15.17 15.91 16.73 14.04Q18.29 12.17 18.29 9.72Q18.29 7.73 17.17 6.04Q16.06 4.34 14.16 3.35Q12.26 2.35 10.03 2.35Q7.8 2.35 5.89 3.35Q3.98 4.34 2.87 6.04Q1.75 7.73 1.75 9.72Q1.75 11.28 2.46 12.71Q3.17 14.14 4.46 15.19Q4.61 15.34 4.49 15.8Q4.37 16.27 4.01 17.11Q3.84 17.45 4.06 17.8Q4.27 18.14 4.68 18.14ZM10.03 3.86Q11.86 3.86 13.42 4.66Q14.98 5.45 15.89 6.79Q16.8 8.14 16.8 9.72Q16.8 11.71 15.58 13.15Q14.35 14.59 12.4 15.2Q10.44 15.82 8.35 15.43Q7.97 15.36 7.52 15.52Q7.08 15.67 6.41 16.01Q6.26 16.08 6.18 16.13Q6.1 16.18 5.95 16.25Q6.12 15.58 6.01 15Q5.9 14.42 5.4 14.02Q4.37 13.2 3.82 12.07Q3.26 10.94 3.26 9.72Q3.26 8.14 4.18 6.79Q5.09 5.45 6.65 4.66Q8.21 3.86 10.03 3.86Z" fill="rgba(0,0,0,0.9019607843137255)"></path><path d="M22.22 13.94Q22.22 12.94 21.9 11.99Q21.58 11.04 20.98 10.22Q20.38 9.41 19.54 8.78Q19.61 9.29 19.6 9.73Q19.58 10.18 19.51 10.8L19.7 11.02Q20.21 11.69 20.47 12.42Q20.74 13.15 20.74 13.94Q20.74 15.05 20.23 16.03Q19.73 17.02 18.82 17.76Q18.36 18.12 18.25 18.62Q18.14 19.13 18.26 19.73Q18.12 19.68 17.99 19.61Q17.86 19.54 17.71 19.46Q16.9 19.01 16.44 19.01Q16.13 19.01 15.94 19.06Q14.81 19.3 13.64 19.14Q12.48 18.98 11.33 18.31Q10.49 18.48 8.93 18.34Q10.01 19.44 11.51 20.08Q13.01 20.71 14.69 20.71Q15.6 20.71 16.44 20.52Q16.49 20.54 16.52 20.56Q16.56 20.57 16.61 20.59Q18.24 21.5 19.37 21.65Q19.94 21.65 20.17 21.31Q20.4 20.98 20.21 20.62Q19.85 19.85 19.76 19.44Q19.68 19.03 19.78 18.96Q20.95 18 21.59 16.69Q22.22 15.38 22.22 13.94Z" fill="rgba(0,0,0,0.9019607843137255)"></path></g></svg>