<?xml version="1.0" standalone="no"?>
<svg xmlns="http://www.w3.org/2000/svg" width="24" height="24"><rect width="24" height="24" opacity="0"></rect><g><path d="M14.28 4.8L10.01 2.83Q9.7 2.71 9.43 2.83L4.25 4.92Q4.03 5.04 3.9 5.22Q3.77 5.4 3.77 5.64L3.77 20.57Q3.77 20.83 3.92 21.04Q4.08 21.24 4.33 21.3Q4.58 21.36 4.8 21.26L9.67 19.3L13.97 21.24Q14.11 21.31 14.26 21.31Q14.4 21.31 14.57 21.26L19.75 19.06Q19.97 18.96 20.09 18.78Q20.21 18.6 20.21 18.36L20.21 3.43Q20.21 3.17 20.04 2.96Q19.87 2.76 19.63 2.7Q19.39 2.64 19.18 2.74ZM13.54 6.1L13.54 19.39L10.44 18L10.44 4.68ZM8.95 4.63L8.95 17.95L5.28 19.44L5.28 6.12ZM15.02 19.44L15.02 6.12L18.72 4.56L18.72 17.88Z" fill="rgba(0,0,0,0.9019607843137255)"></path></g></svg>