<?xml version="1.0" standalone="no"?>
<svg xmlns="http://www.w3.org/2000/svg" width="24" height="24"><rect width="24" height="24" opacity="0"></rect><g><path d="M12 2.5Q12.41 2.5 12.71 2.79Q13 3.09 13 3.5L13 14.09L16.29 10.79Q16.58 10.5 17 10.5Q17.42 10.5 17.71 10.79Q18 11.08 18 11.5Q18 11.92 17.71 12.21L12.71 17.21Q12.42 17.5 12 17.5Q11.58 17.5 11.29 17.21L6.29 12.21Q6 11.92 6 11.5Q6 11.08 6.29 10.79Q6.58 10.5 7 10.5Q7.42 10.5 7.71 10.79L11 14.09L11 3.5Q11 3.09 11.29 2.79Q11.59 2.5 12 2.5ZM5 17.5Q4.59 17.5 4.29 17.79Q4 18.09 4 18.5L4 20.5Q4 21.33 4.58 21.92Q5.17 22.5 6 22.5L18 22.5Q18.83 22.5 19.42 21.92Q20 21.33 20 20.5L20 18.5Q20 18.09 19.71 17.79Q19.41 17.5 19 17.5Q18.59 17.5 18.29 17.79Q18 18.09 18 18.5L18 20.5Q18 20.71 17.85 20.85Q17.71 21 17.5 21L6.5 21Q6.29 21 6.15 20.85Q6 20.71 6 20.5L6 18.5Q6 18.09 5.71 17.79Q5.41 17.5 5 17.5Z" fill="rgba(0,0,0,0.9)"></path></g></svg>
