<?xml version="1.0" encoding="utf-8" ?><svg xmlns="http://www.w3.org/2000/svg" xmlns:xlink="http://www.w3.org/1999/xlink" width="256" height="256"><rect fill="#2E6DDE" width="256" height="256" rx="63" ry="63"/><path fill="#FFF" transform="matrix(1 0 0 1 61 40)" d="M65 0C113.0488 0 152 38.9512 152 87L152 89C152 137.0488 113.0488 176 65 176L0 176L0 0L65 0Z"/><path fill="#2E6DDE" transform="matrix(1 0 0 1 61 53)" d="M70.7447 14.6353C72.2415 10.0287 78.7585 10.0287 80.2553 14.6353L91.3282 48.7143C91.9976 50.7744 93.9174 52.1692 96.0835 52.1692L131.9164 52.1692C136.76 52.1692 138.7738 58.3673 134.8553 61.2143L105.8659 82.2763C104.1135 83.5495 103.3802 85.8064 104.0496 87.8665L115.1225 121.9455C116.6193 126.5521 111.3469 130.3827 107.4283 127.5357L78.4389 106.4737C76.6865 105.2005 74.3135 105.2005 72.5611 106.4737L43.5717 127.5357C39.6531 130.3827 34.3807 126.5521 35.8775 121.9455L46.9504 87.8665C47.6198 85.8064 46.8865 83.5495 45.1341 82.2763L16.1447 61.2143C12.2262 58.3673 14.24 52.1692 19.0836 52.1692L54.9165 52.1692C57.0826 52.1692 59.0024 50.7744 59.6718 48.7143L70.7447 14.6353Z"/></svg>