<?xml version="1.0" standalone="no"?>
<svg xmlns="http://www.w3.org/2000/svg" width="24" height="24"><rect width="24" height="24" opacity="0"></rect><g><path d="M19.99 21Q20.81 21 21.49 20.59Q22.18 20.18 22.58 19.5Q22.99 18.82 22.99 18L22.99 6Q22.99 5.18 22.58 4.5Q22.18 3.82 21.49 3.41Q20.81 3 19.99 3L3.98 3Q3.17 3 2.48 3.41Q1.8 3.82 1.39 4.5Q0.98 5.18 0.98 6L0.98 18Q0.98 18.82 1.39 19.5Q1.8 20.18 2.48 20.59Q3.17 21 3.98 21L19.99 21ZM19.99 4.49Q20.62 4.49 21.05 4.93Q21.48 5.38 21.48 6L21.48 18Q21.48 18.62 21.05 19.06Q20.62 19.49 19.99 19.49L3.98 19.49Q3.36 19.49 2.93 19.06Q2.5 18.62 2.5 18L2.5 6Q2.5 5.38 2.93 4.93Q3.36 4.49 3.98 4.49L19.99 4.49Z" fill="rgba(0,0,0,0.9019607843137255)"></path></g></svg>