<?xml version="1.0" standalone="no"?>
<svg xmlns="http://www.w3.org/2000/svg" width="24" height="24"><rect width="24" height="24" opacity="0"></rect><g><path d="M3.74 3.5Q3 3.5 2.38 3.88Q1.75 4.25 1.38 4.87Q1.01 5.5 1.01 6.24L1.01 17.76Q1.01 18.5 1.38 19.13Q1.75 19.75 2.38 20.12Q3 20.5 3.74 20.5L20.26 20.5Q21 20.5 21.62 20.12Q22.25 19.75 22.62 19.13Q22.99 18.5 22.99 17.76L22.99 6.24Q22.99 5.5 22.62 4.87Q22.25 4.25 21.62 3.88Q21 3.5 20.26 3.5L3.74 3.5ZM14.69 19.01L9.38 19.01L9.38 4.99L14.69 4.99ZM2.5 6.24Q2.5 5.74 2.86 5.36Q3.22 4.99 3.74 4.99L7.87 4.99L7.87 19.01L3.74 19.01Q3.22 19.01 2.86 18.64Q2.5 18.26 2.5 17.76L2.5 6.24ZM21.5 17.76Q21.5 18.26 21.14 18.64Q20.78 19.01 20.26 19.01L16.18 19.01L16.18 4.99L20.26 4.99Q20.78 4.99 21.14 5.36Q21.5 5.74 21.5 6.24L21.5 17.76Z" fill="rgba(0,0,0,0.9019607843137255)"></path></g></svg>